<svg width="264" height="37" viewBox="0 0 264 37" fill="none" xmlns="http://www.w3.org/2000/svg">
<path d="M8.65 0.899999V36H0.1V0.899999H8.65ZM46.2461 36H37.6961L23.3961 14.35V36H14.8461V0.899999H23.3961L37.6961 22.65V0.899999H46.2461V36ZM72.7938 36L60.9938 20.5V36H52.4438V0.899999H60.9938V16.3L72.6938 0.899999H82.7438L69.1438 18.1L83.2438 36H72.7938ZM100.007 36.4C97.2737 36.4 94.807 35.8167 92.607 34.65C90.4404 33.4833 88.7237 31.8167 87.457 29.65C86.2237 27.4833 85.607 24.95 85.607 22.05C85.607 19.1833 86.2404 16.6667 87.507 14.5C88.7737 12.3 90.507 10.6167 92.707 9.45C94.907 8.28333 97.3737 7.7 100.107 7.7C102.84 7.7 105.307 8.28333 107.507 9.45C109.707 10.6167 111.44 12.3 112.707 14.5C113.974 16.6667 114.607 19.1833 114.607 22.05C114.607 24.9167 113.957 27.45 112.657 29.65C111.39 31.8167 109.64 33.4833 107.407 34.65C105.207 35.8167 102.74 36.4 100.007 36.4ZM100.007 29C101.64 29 103.024 28.4 104.157 27.2C105.324 26 105.907 24.2833 105.907 22.05C105.907 19.8167 105.34 18.1 104.207 16.9C103.107 15.7 101.74 15.1 100.107 15.1C98.4404 15.1 97.057 15.7 95.957 16.9C94.857 18.0667 94.307 19.7833 94.307 22.05C94.307 24.2833 94.8404 26 95.907 27.2C97.007 28.4 98.3737 29 100.007 29ZM136.143 7.8C139.41 7.8 142.01 8.86667 143.943 11C145.91 13.1 146.893 16 146.893 19.7V36H138.393V20.85C138.393 18.9833 137.91 17.5333 136.943 16.5C135.976 15.4667 134.676 14.95 133.043 14.95C131.41 14.95 130.11 15.4667 129.143 16.5C128.176 17.5333 127.693 18.9833 127.693 20.85V36H119.143V8.1H127.693V11.8C128.56 10.5667 129.726 9.6 131.193 8.9C132.66 8.16667 134.31 7.8 136.143 7.8ZM169.834 7.8C173.101 7.8 175.701 8.86667 177.634 11C179.601 13.1 180.584 16 180.584 19.7V36H172.084V20.85C172.084 18.9833 171.601 17.5333 170.634 16.5C169.668 15.4667 168.368 14.95 166.734 14.95C165.101 14.95 163.801 15.4667 162.834 16.5C161.868 17.5333 161.384 18.9833 161.384 20.85V36H152.834V8.1H161.384V11.8C162.251 10.5667 163.418 9.6 164.884 8.9C166.351 8.16667 168.001 7.8 169.834 7.8ZM212.826 21.6C212.826 22.4 212.776 23.2333 212.676 24.1H193.326C193.459 25.8333 194.009 27.1667 194.976 28.1C195.976 29 197.192 29.45 198.626 29.45C200.759 29.45 202.242 28.55 203.076 26.75H212.176C211.709 28.5833 210.859 30.2333 209.626 31.7C208.426 33.1667 206.909 34.3167 205.076 35.15C203.242 35.9833 201.192 36.4 198.926 36.4C196.192 36.4 193.759 35.8167 191.626 34.65C189.492 33.4833 187.826 31.8167 186.626 29.65C185.426 27.4833 184.826 24.95 184.826 22.05C184.826 19.15 185.409 16.6167 186.576 14.45C187.776 12.2833 189.442 10.6167 191.576 9.45C193.709 8.28333 196.159 7.7 198.926 7.7C201.626 7.7 204.026 8.26667 206.126 9.4C208.226 10.5333 209.859 12.15 211.026 14.25C212.226 16.35 212.826 18.8 212.826 21.6ZM204.076 19.35C204.076 17.8833 203.576 16.7167 202.576 15.85C201.576 14.9833 200.326 14.55 198.826 14.55C197.392 14.55 196.176 14.9667 195.176 15.8C194.209 16.6333 193.609 17.8167 193.376 19.35H204.076ZM215.636 22.05C215.636 19.15 216.22 16.6167 217.386 14.45C218.586 12.2833 220.236 10.6167 222.336 9.45C224.47 8.28333 226.903 7.7 229.636 7.7C233.136 7.7 236.053 8.61666 238.386 10.45C240.753 12.2833 242.303 14.8667 243.036 18.2H233.936C233.17 16.0667 231.686 15 229.486 15C227.92 15 226.67 15.6167 225.736 16.85C224.803 18.05 224.336 19.7833 224.336 22.05C224.336 24.3167 224.803 26.0667 225.736 27.3C226.67 28.5 227.92 29.1 229.486 29.1C231.686 29.1 233.17 28.0333 233.936 25.9H243.036C242.303 29.1667 240.753 31.7333 238.386 33.6C236.02 35.4667 233.103 36.4 229.636 36.4C226.903 36.4 224.47 35.8167 222.336 34.65C220.236 33.4833 218.586 31.8167 217.386 29.65C216.22 27.4833 215.636 24.95 215.636 22.05ZM263.16 28.75V36H258.81C255.71 36 253.293 35.25 251.56 33.75C249.826 32.2167 248.96 29.7333 248.96 26.3V15.2H245.56V8.1H248.96V1.3H257.51V8.1H263.11V15.2H257.51V26.4C257.51 27.2333 257.71 27.8333 258.11 28.2C258.51 28.5667 259.176 28.75 260.11 28.75H263.16Z" fill="#EAE0D5"/>
</svg>
